<svg width="53" height="52" viewBox="0 0 53 52" fill="none" xmlns="http://www.w3.org/2000/svg">
<path d="M46.1982 5.15666C43.719 4.61189 41.1864 4.3358 38.6457 4.33333C36.2464 4.18386 33.8405 4.50124 31.5666 5.26723C29.2927 6.03321 27.1955 7.23268 25.3957 8.79666C23.0255 11.1222 20.6773 13.4406 18.3512 15.7517C15.6791 15.47 9.34115 15.3183 5.10115 19.5217C4.68985 19.9276 4.45898 20.4768 4.45898 21.0492C4.45898 21.6216 4.68985 22.1707 5.10115 22.5767L30.0553 47.1033C30.4691 47.5069 31.0288 47.7334 31.6122 47.7334C32.1956 47.7334 32.7553 47.5069 33.1691 47.1033C37.4753 42.77 37.3428 36.66 37.0778 34.1033L44.1666 27.17C51.2112 20.2583 48.0091 7.28 47.8766 6.73833C47.7746 6.34754 47.5635 5.99243 47.267 5.71299C46.9705 5.43355 46.6003 5.24088 46.1982 5.15666ZM40.9866 24.115L33.1249 31.785C32.8703 32.0372 32.6828 32.347 32.5788 32.687C32.4748 33.027 32.4576 33.3869 32.5287 33.735C33.0057 36.6336 32.5905 39.6059 31.3362 42.2717L9.98157 21.2767C12.7417 20.0303 15.8271 19.6519 18.8149 20.1933C19.1684 20.2385 19.5278 20.199 19.8624 20.0783C20.1969 19.9575 20.4967 19.7591 20.7362 19.5C20.7362 19.5 23.8278 16.3583 28.4874 11.7867C31.3526 9.52925 34.9801 8.4151 38.6457 8.66666C40.37 8.67505 42.0907 8.81996 43.7912 9.1C44.3212 12.1983 45.1603 20.02 40.9866 24.115Z" fill="#13FF00"/>
<path d="M34.737 22.3167C37.1762 22.3167 39.1536 20.3766 39.1536 17.9834C39.1536 15.5901 37.1762 13.65 34.737 13.65C32.2977 13.65 30.3203 15.5901 30.3203 17.9834C30.3203 20.3766 32.2977 22.3167 34.737 22.3167Z" fill="#13FF00"/>
<path d="M11.0417 34.6666C6.625 36.8333 6.625 45.5 6.625 45.5C10.7128 45.3855 14.6261 43.8497 17.6667 41.1666L11.0417 34.6666Z" fill="#13FF00"/>
</svg>
