<svg width="65" height="65" viewBox="0 0 65 65" fill="none" xmlns="http://www.w3.org/2000/svg">
<g clip-path="url(#clip0_1519_922)">
<path d="M9.2035 58.3524L4.06787 0.75H60.4999L55.3587 58.3433L32.2494 64.75L9.2035 58.3524Z" fill="#264DE4"/>
<path d="M50.9574 54.676L55.3509 5.45972H32.2839V59.853L50.9574 54.676Z" fill="#2965F1"/>
<path d="M15.8415 26.8238L16.4746 33.8884H32.284V26.8238H15.8415ZM15.2113 19.5894H32.284V12.5247H14.5691L15.2113 19.5894ZM32.284 45.1715L32.253 45.1798L24.385 43.0553L23.8821 37.4208H16.7901L17.78 48.5134L32.2515 52.5309L32.284 52.5218V45.1715Z" fill="#EBEBEB"/>
<path d="M32.2595 26.8238V33.8884H40.9589L40.1389 43.0508L32.2595 45.1774V52.5274L46.7425 48.5134L46.8488 47.3198L48.5088 28.7208L48.6813 26.8238L49.9566 12.5247H32.2595V19.5894H42.2144L41.5714 26.8238H32.2595Z" fill="white"/>
</g>
<defs>
<clipPath id="clip0_1519_922">
<rect width="64" height="64" fill="white" transform="translate(0.283936 0.75)"/>
</clipPath>
</defs>
</svg>
