<svg width="35" height="35" viewBox="0 0 35 35" fill="none" xmlns="http://www.w3.org/2000/svg">
<path d="M17.5001 32.0833C9.44593 32.0833 2.91675 25.5541 2.91675 17.5C2.91675 9.44584 9.44593 2.91666 17.5001 2.91666C25.5542 2.91666 32.0834 9.44584 32.0834 17.5C32.0746 25.5505 25.5506 32.0745 17.5001 32.0833ZM10.3834 27.0448L10.3761 27.0594C13.7056 29.5536 18.097 30.125 21.9538 28.5658C21.401 25.5927 20.5815 22.6754 19.5053 19.8494C17.0333 20.7113 14.7733 22.0898 12.8757 23.8933C11.9405 24.7788 11.1309 25.7881 10.4695 26.8931L10.4592 26.9092V26.8946L10.433 26.9456L10.4155 26.9748L10.4053 26.9937L10.3805 27.0462L10.3834 27.0448ZM24.4695 19.024C23.7515 19.025 23.0343 19.0737 22.3228 19.1698C23.252 21.7664 23.9833 24.4296 24.5103 27.1367C26.9886 25.3501 28.6731 22.6681 29.2061 19.6598C27.6633 19.2341 26.07 19.0188 24.4695 19.0196V19.024ZM5.56654 17.4344V17.516C5.5692 20.3256 6.56335 23.0442 8.37383 25.1927C10.7192 21.5695 14.1886 18.8158 18.2497 17.3542L18.4232 17.3046C18.1651 16.7344 17.923 16.2254 17.6809 15.75C13.79 16.841 9.77077 17.4074 5.72987 17.4344H5.56654ZM24.013 16.5506C25.8225 16.5573 27.628 16.7222 29.4088 17.0435C29.316 14.5766 28.4532 12.2007 26.9413 10.2492C25.1771 12.2222 22.9812 13.7613 20.5247 14.7467L20.567 14.7292L20.5218 14.7481C20.7828 15.2921 21.0118 15.801 21.2028 16.2546C21.248 16.3625 21.2859 16.4558 21.3209 16.5462L21.3807 16.6921C22.2548 16.5951 23.1336 16.5479 24.013 16.5506ZM12.2165 6.82062C9.04512 8.38595 6.73202 11.2781 5.90196 14.716C9.30043 14.6635 12.6826 14.2341 15.9863 13.4356H16.0053H16.0272L16.0417 13.4167L16.1205 13.3977H16.1293L16.1876 13.386H16.2007H16.2109L16.2415 13.3773L16.2999 13.3627L16.3334 13.3481L16.3655 13.3394H16.3801H16.3947C14.4507 9.91666 12.4382 7.12687 12.2151 6.82062H12.2165ZM17.5001 5.59849C16.7018 5.59652 15.9052 5.67222 15.1215 5.82457C16.6493 7.94147 18.0512 10.1464 19.3201 12.4279C21.5923 11.6186 23.6189 10.2398 25.2059 8.42332C23.0515 6.60128 20.3217 5.60059 17.5001 5.59849Z" fill="white"/>
</svg>
