<svg width="57" height="81" viewBox="0 0 57 81" fill="none" xmlns="http://www.w3.org/2000/svg">
<g clip-path="url(#clip0_1519_975)">
<path d="M28.5 40.7501C28.5 37.2139 29.975 33.8225 32.6005 31.322C35.226 28.8215 38.787 27.4167 42.5 27.4167C46.213 27.4167 49.774 28.8215 52.3995 31.322C55.025 33.8225 56.5 37.2139 56.5 40.7501C56.5 44.2863 55.025 47.6777 52.3995 50.1782C49.774 52.6787 46.213 54.0834 42.5 54.0834C38.787 54.0834 35.226 52.6787 32.6005 50.1782C29.975 47.6777 28.5 44.2863 28.5 40.7501Z" fill="#1ABCFE"/>
<path d="M0.5 67.4166C0.5 63.8804 1.975 60.489 4.6005 57.9885C7.22601 55.488 10.787 54.0833 14.5 54.0833H28.5V67.4166C28.5 70.9528 27.025 74.3442 24.3995 76.8447C21.774 79.3452 18.213 80.7499 14.5 80.7499C10.787 80.7499 7.22601 79.3452 4.6005 76.8447C1.975 74.3442 0.5 70.9528 0.5 67.4166H0.5Z" fill="#0ACF83"/>
<path d="M28.5 0.75V27.4167H42.5C46.213 27.4167 49.774 26.0119 52.3995 23.5114C55.025 21.0109 56.5 17.6196 56.5 14.0833C56.5 10.5471 55.025 7.15573 52.3995 4.65524C49.774 2.15476 46.213 0.75 42.5 0.75L28.5 0.75Z" fill="#FF7262"/>
<path d="M0.5 14.0833C0.5 17.6196 1.975 21.0109 4.6005 23.5114C7.22601 26.0119 10.787 27.4167 14.5 27.4167H28.5V0.75H14.5C10.787 0.75 7.22601 2.15476 4.6005 4.65524C1.975 7.15573 0.5 10.5471 0.5 14.0833H0.5Z" fill="#F24E1E"/>
<path d="M0.5 40.7501C0.5 44.2863 1.975 47.6777 4.6005 50.1782C7.22601 52.6787 10.787 54.0834 14.5 54.0834H28.5V27.4167H14.5C10.787 27.4167 7.22601 28.8215 4.6005 31.322C1.975 33.8225 0.5 37.2139 0.5 40.7501H0.5Z" fill="#A259FF"/>
</g>
<defs>
<clipPath id="clip0_1519_975">
<rect width="56" height="80" fill="white" transform="translate(0.5 0.75)"/>
</clipPath>
</defs>
</svg>
