<svg width="35" height="35" viewBox="0 0 35 35" fill="none" xmlns="http://www.w3.org/2000/svg">
<path d="M17.5379 2.91666C10.4021 2.91574 4.31926 8.0908 3.17677 15.1345C2.03429 22.1781 6.16956 29.0106 12.9397 31.2652C13.6689 31.3964 13.9299 30.9487 13.9299 30.5637C13.9299 30.2181 13.9183 29.3023 13.9139 28.0846C9.86702 28.9596 9.01244 26.1333 9.01244 26.1333C8.74603 25.2539 8.17328 24.499 7.39807 24.0056C6.08557 23.1029 7.49869 23.1233 7.49869 23.1233C8.43301 23.2514 9.25533 23.805 9.72557 24.6225C10.1236 25.3462 10.7942 25.881 11.5883 26.108C12.3824 26.335 13.2343 26.2354 13.9547 25.8315C14.0224 25.0935 14.3507 24.4039 14.8808 23.886C11.652 23.52 8.25702 22.2717 8.25702 16.6965C8.23911 15.2544 8.77459 13.8604 9.75328 12.8012C9.31045 11.5461 9.3626 10.1693 9.89911 8.95124C9.89911 8.95124 11.1197 8.55895 13.8979 10.4402C16.2806 9.78688 18.7952 9.78688 21.1779 10.4402C23.9574 8.55749 25.1766 8.95124 25.1766 8.95124C25.7156 10.1687 25.7678 11.5465 25.3224 12.8012C26.3047 13.8603 26.8397 15.258 26.8158 16.7023C26.8158 22.2921 23.4179 23.52 20.1774 23.8802C20.8765 24.5949 21.2349 25.5753 21.1618 26.5723C21.1618 28.5177 21.1443 30.0869 21.1443 30.5637C21.1443 30.9531 21.4039 31.4052 22.1462 31.2623C28.9135 29.0038 33.0444 22.171 31.8995 15.1292C30.7547 8.0874 24.6721 2.91502 17.5379 2.91666Z" fill="white"/>
</svg>
