<svg width="57" height="64" viewBox="0 0 57 64" fill="none" xmlns="http://www.w3.org/2000/svg">
<path d="M5.77151 56.9572L0.716064 0.240967H56.2839L51.2215 56.9502L28.465 63.259L5.77151 56.9572Z" fill="#E44D26"/>
<path d="M28.5002 58.4345L46.8875 53.3371L51.2147 4.87622H28.5002V58.4345Z" fill="#F16529"/>
<path d="M28.5001 25.9172H19.2925L18.6623 18.7892H28.5001V11.8362H28.4791H11.0581L11.2262 13.6987L12.9346 32.8702H28.5001V25.9172Z" fill="#EBEBEB"/>
<path d="M28.5 43.9825L28.472 43.9895L20.7208 41.8959L20.2307 36.3503H16.4636H13.2427L14.216 47.2735L28.465 51.2296L28.5 51.2156V43.9825Z" fill="#EBEBEB"/>
<path d="M28.479 25.9172V32.8702H37.0424L36.2372 41.8888L28.479 43.9894V51.2225L42.7351 47.2733L42.8401 46.097L44.4786 27.7798L44.6466 25.9172H42.7701H28.479Z" fill="white"/>
<path d="M28.479 11.8362V16.1564V18.7752V18.7892H45.2558H45.2768L45.4168 17.2277L45.7319 13.6987L45.9 11.8362H28.479Z" fill="white"/>
</svg>
