<svg width="35" height="35" viewBox="0 0 35 35" fill="none" xmlns="http://www.w3.org/2000/svg">
<path d="M17.1023 30.2798C13.5148 30.2798 13.0919 30.2608 11.6919 30.1996C10.6001 30.1637 9.52251 29.9417 8.50542 29.5433C6.74567 28.8585 5.35417 27.4664 4.67 25.7064C4.28691 24.6857 4.08028 23.6071 4.05896 22.5171C3.97729 21.12 3.97729 20.6621 3.97729 17.1023C3.97729 13.5046 3.99625 13.0846 4.05896 11.6918C4.08075 10.6032 4.28737 9.52623 4.67 8.50685C5.35342 6.7445 6.74718 5.35127 8.50979 4.66851C9.52865 4.28381 10.6059 4.07664 11.6948 4.05601C13.0875 3.97726 13.5454 3.97726 17.1023 3.97726C20.719 3.97726 21.1346 3.99622 22.5127 4.05601C23.6044 4.07682 24.6845 4.28397 25.7065 4.66851C27.4686 5.35204 28.8621 6.745 29.5463 8.50685C29.9358 9.54109 30.1435 10.6349 30.1602 11.74C30.2419 13.1371 30.2419 13.5935 30.2419 17.1518C30.2419 20.7102 30.2215 21.1768 30.1602 22.5579C30.1385 23.649 29.9314 24.7285 29.5477 25.7502C28.8618 27.5114 27.4682 28.9039 25.7065 29.5885C24.686 29.9709 23.6081 30.1775 22.5185 30.1996C21.1258 30.2798 20.6694 30.2798 17.1023 30.2798ZM17.0527 6.28581C13.4856 6.28581 13.1152 6.30331 11.7225 6.36601C10.8912 6.37703 10.068 6.53043 9.28855 6.81956C8.13756 7.25999 7.22679 8.16704 6.78167 9.31622C6.49031 10.1042 6.33689 10.9364 6.32813 11.7764C6.25084 13.1896 6.25084 13.56 6.25084 17.1023C6.25084 20.6023 6.26396 21.0266 6.32813 22.431C6.34118 23.2626 6.49452 24.0859 6.78167 24.8664C7.22745 26.0149 8.13806 26.9212 9.28855 27.3616C10.0675 27.6527 10.891 27.8062 11.7225 27.8152C13.1342 27.8968 13.506 27.8968 17.0527 27.8968C20.63 27.8968 21.0004 27.8793 22.3815 27.8152C23.2133 27.8051 24.0372 27.6516 24.8169 27.3616C25.9609 26.9174 26.8657 26.0131 27.3106 24.8693C27.6014 24.0808 27.7548 23.2481 27.7642 22.4077H27.7802C27.8429 21.0135 27.8429 20.6416 27.8429 17.0789C27.8429 13.5162 27.8269 13.1414 27.7642 11.7487C27.7511 10.9181 27.5978 10.0957 27.3106 9.31622C26.8667 8.17081 25.9618 7.26477 24.8169 6.81956C24.0373 6.52897 23.2134 6.37552 22.3815 6.36601C20.9713 6.28581 20.6023 6.28581 17.0527 6.28581ZM17.1023 23.8383C14.3752 23.8401 11.9156 22.1988 10.8706 19.6798C9.82566 17.1609 10.4011 14.2605 12.3286 12.3313C14.2561 10.4021 17.1561 9.82412 19.6759 10.8669C22.1958 11.9097 23.8392 14.3679 23.8398 17.095C23.8358 20.8153 20.8226 23.8311 17.1023 23.8383ZM17.1023 12.7171C14.686 12.7171 12.7273 14.6758 12.7273 17.0921C12.7273 19.5083 14.686 21.4671 17.1023 21.4671C19.5185 21.4671 21.4773 19.5083 21.4773 17.0921C21.4717 14.6781 19.5162 12.7227 17.1023 12.7171ZM24.1023 11.6773C23.2352 11.674 22.5344 10.9694 22.536 10.1023C22.5377 9.23518 23.241 8.53311 24.1081 8.53311C24.9752 8.53311 25.6786 9.23517 25.6802 10.1023C25.6806 10.5206 25.5144 10.9219 25.2183 11.2174C24.9222 11.513 24.5206 11.6784 24.1023 11.6773Z" fill="white"/>
</svg>
