<svg width="65" height="65" viewBox="0 0 65 65" fill="none" xmlns="http://www.w3.org/2000/svg">
<g clip-path="url(#clip0_1519_941)">
<path d="M64.5 0.75H0.5V64.75H64.5V0.75Z" fill="#F7DF1E"/>
<path d="M43.4918 50.7502C44.7809 52.8551 46.4581 54.4022 49.4245 54.4022C51.9164 54.4022 53.5083 53.1568 53.5083 51.4359C53.5083 49.3737 51.8727 48.6433 49.1299 47.4435L47.6264 46.7984C43.2866 44.9495 40.4035 42.6334 40.4035 37.7368C40.4035 33.2264 43.8402 29.7927 49.2111 29.7927C53.0349 29.7927 55.7838 31.1235 57.7648 34.608L53.0816 37.6149C52.0505 35.7661 50.9381 35.0377 49.2111 35.0377C47.4496 35.0377 46.3332 36.1551 46.3332 37.6149C46.3332 39.4191 47.4506 40.1495 50.0309 41.267L51.5344 41.9111C56.6443 44.1023 59.5294 46.3362 59.5294 51.3587C59.5294 56.7733 55.2759 59.7396 49.5636 59.7396C43.9784 59.7396 40.37 57.0781 38.6044 53.5896L43.4918 50.7502ZM22.2468 51.2713C23.1916 52.9475 24.051 54.3647 26.1173 54.3647C28.0932 54.3647 29.3396 53.5916 29.3396 50.5856V30.1361H35.3536V50.6669C35.3536 56.8942 31.7026 59.7285 26.3733 59.7285C21.558 59.7285 18.7695 57.2365 17.3513 54.2351L22.2468 51.2713Z" fill="black"/>
</g>
<defs>
<clipPath id="clip0_1519_941">
<rect width="64" height="64" fill="white" transform="translate(0.5 0.75)"/>
</clipPath>
</defs>
</svg>
