<svg width="34" height="34" viewBox="0 0 34 34" fill="none" xmlns="http://www.w3.org/2000/svg">
<path d="M25.014 23.5973C23.687 24.9241 20.9123 27.6988 19.003 29.6082C17.8964 30.7147 16.1043 30.7153 14.9978 29.6088C13.1217 27.7327 10.4007 25.0117 8.98621 23.5973C4.56026 19.1713 4.56026 11.9954 8.98621 7.56946C13.4121 3.14351 20.5881 3.14351 25.014 7.56946C29.4398 11.9954 29.4398 19.1713 25.014 23.5973Z" stroke="white" stroke-width="2" stroke-linecap="round" stroke-linejoin="round"/>
<path d="M21.25 15.5835C21.25 17.9308 19.3473 19.8335 17 19.8335C14.6527 19.8335 12.75 17.9308 12.75 15.5835C12.75 13.2363 14.6527 11.3335 17 11.3335C19.3473 11.3335 21.25 13.2363 21.25 15.5835Z" stroke="white" stroke-width="2" stroke-linecap="round" stroke-linejoin="round"/>
</svg>
