<svg width="31" height="29" viewBox="0 0 31 29" fill="none" xmlns="http://www.w3.org/2000/svg">
<path d="M0.422897 13.5243C3.28738 11.6192 6.48491 10.0291 9.47253 8.43093C14.6124 5.81324 19.7727 3.24091 24.985 0.846104C25.9991 0.438077 27.8213 0.0390989 28 1.85368C27.9021 4.42231 27.4997 6.9759 27.2236 9.52949C26.523 15.1451 25.7131 20.7414 24.9233 26.3385C24.6512 28.2029 22.717 29.168 21.4793 27.9749C18.505 25.5491 15.5078 23.1468 12.5714 20.6647C11.6095 19.4846 12.5015 17.7899 13.3605 16.9471C15.8103 14.0321 18.4083 11.5554 20.73 8.48973C21.3563 6.66371 19.5058 8.20262 18.8955 8.67419C15.5417 11.4647 12.2701 14.4256 8.73419 16.8781C6.92806 18.0786 4.82299 17.0527 3.01768 16.3829C1.39902 15.5736 -0.972957 14.7584 0.422734 13.5245L0.422897 13.5243Z" fill="white"/>
</svg>
